<?xml version="1.0"?><svg width="640" height="480" xmlns="http://www.w3.org/2000/svg">
 <title>Black thermometer 9</title>
 <defs>
  <clipPath id="clipPath5883" clipPathUnits="userSpaceOnUse">
   <path fill="none" stroke="#000000" stroke-width="3" stroke-miterlimit="4" id="path5885" d="m4435.485352,1614.239258c-9.71875,0 -17.5625,7.812256 -17.5625,17.53125l0,102.5625c0,0.031982 -0.000488,0.061768 0,0.093506c-9.430176,5.873779 -15.71875,16.32251 -15.71875,28.25c0,18.376465 14.904297,33.281494 33.28125,33.281494c18.376465,0 33.28125,-14.905029 33.28125,-33.281494c0,-11.937012 -6.307129,-22.378906 -15.75,-28.25c0.000488,-0.031738 0,-0.061768 0,-0.093506l0,-102.5625c0,-9.718994 -7.8125,-17.53125 -17.53125,-17.53125z"/>
  </clipPath>
 </defs>
 <metadata id="metadata6311">image/svg+xml</metadata>
 <g display="inline">
  <title>Layer 2</title>
 </g>
 <g display="inline">
  <title>Layer 1</title>
  <path fill="none" stroke="#191919" stroke-width="9" stroke-miterlimit="4" d="m287.26001,122.44397c-13.997009,0 -25.294006,11.423981 -25.294006,25.635925l0,149.973633c0,0.046692 -0.001007,0.090332 0,0.137054c-13.582001,8.588287 -22.639008,23.86731 -22.639008,41.308838c0,26.871521 21.466003,48.665588 47.933014,48.665588c26.46698,0 47.93399,-21.794067 47.93399,-48.665588c0,-17.45575 -9.084015,-32.723602 -22.68399,-41.308838c0,-0.046722 0,-0.090363 0,-0.137054l0,-149.973633c0,-14.211945 -11.252014,-25.635925 -25.25,-25.635925z" id="path6241"/>
  <g id="svg_19">
   <rect id="svg_12" height="11.000001" width="29.000001" y="148.417615" x="259.586666" stroke-width="0" stroke="#333333" fill="#999999"/>
   <rect id="svg_14" height="11.000001" width="29.000001" y="275.582982" x="259.584061" stroke-width="0" stroke="#333333" fill="#999999"/>
   <rect id="svg_16" height="11.000001" width="29.000001" y="211.582982" x="259.584061" stroke-width="0" stroke="#333333" fill="#999999"/>
   <rect id="svg_17" height="11.000001" width="22.000001" y="182.584283" x="266.585502" stroke-width="0" stroke="#333333" fill="#999999"/>
   <rect id="svg_18" height="11.000001" width="22.000001" y="244.581678" x="266.586803" stroke-width="0" stroke="#333333" fill="#999999"/>
  </g>
 </g>
</svg>